<?xml version="1.0" standalone="no"?>
<!DOCTYPE svg PUBLIC "-//W3C//DTD SVG 20010904//EN"
 "http://www.w3.org/TR/2001/REC-SVG-20010904/DTD/svg10.dtd">
<svg version="1.0" xmlns="http://www.w3.org/2000/svg"
 width="270.000000pt" height="244.000000pt" viewBox="0 0 270.000000 244.000000"
 preserveAspectRatio="xMidYMid meet">

<g transform="translate(0.000000,244.000000) scale(0.100000,-0.100000)"
fill="#000000" stroke="none">
<path d="M1649 2355 c-49 -26 -50 -40 -47 -494 l3 -423 28 -24 c28 -24 29 -24
267 -24 238 0 239 0 267 24 l28 24 3 414 c3 452 1 478 -48 503 -41 21 -462 21
-501 0z m410 -130 c37 -19 41 -31 41 -135 0 -134 0 -134 -192 -138 -144 -3
-155 -2 -181 18 -26 21 -27 24 -27 124 0 144 0 144 198 145 98 1 140 -3 161
-14z m-245 -377 c19 -31 -4 -53 -55 -53 -38 0 -44 3 -47 23 -6 43 4 53 49 50
27 -2 46 -9 53 -20z m136 2 c18 -33 -4 -60 -48 -60 -40 0 -62 14 -62 40 0 26
22 40 62 40 27 0 40 -5 48 -20z m135 -20 c0 -33 -2 -35 -38 -38 -44 -4 -67 11
-67 43 0 28 13 34 65 32 39 -2 40 -3 40 -37z m-271 -82 c19 -31 -4 -53 -55
-53 -38 0 -44 3 -47 23 -6 43 4 53 49 50 27 -2 46 -9 53 -20z m140 0 c17 -28
-5 -52 -48 -56 -56 -5 -87 33 -54 66 18 18 89 11 102 -10z m131 -18 c0 -31 -3
-35 -29 -38 -48 -6 -76 6 -76 31 0 34 20 48 65 45 38 -3 40 -4 40 -38z m-275
-74 c6 -8 10 -25 8 -38 -3 -21 -8 -23 -53 -23 -48 0 -50 1 -53 29 -2 16 2 32
10 37 21 14 74 10 88 -5z m134 -2 c33 -32 11 -64 -44 -64 -39 0 -60 14 -60 42
0 36 75 52 104 22z m134 7 c8 -5 12 -21 10 -37 -3 -28 -5 -29 -53 -29 -45 0
-50 2 -53 23 -2 13 2 30 8 38 14 15 67 19 88 5z m-268 -105 c6 -8 10 -25 8
-38 -3 -21 -8 -23 -53 -23 -48 0 -50 1 -53 29 -2 16 2 32 10 37 21 14 74 10
88 -5z m135 1 c13 -10 16 -21 11 -40 -6 -24 -11 -27 -49 -27 -62 0 -86 30 -51
64 19 20 64 21 89 3z m133 4 c8 -5 12 -21 10 -37 -3 -28 -5 -29 -53 -29 -45 0
-50 2 -53 24 -6 41 56 68 96 42z"/>
<path d="M465 2315 l-25 -24 0 -279 0 -279 26 -27 27 -26 281 0 c205 1 285 4
297 13 36 28 39 51 39 327 l0 271 -25 24 -24 25 -286 0 -286 0 -24 -25z"/>
<path d="M1140 2010 l0 -190 215 0 215 0 0 190 0 190 -215 0 -215 0 0 -190z"/>
<path d="M550 1035 l0 -605 225 0 225 0 -2 603 -3 602 -222 3 -223 2 0 -605z"/>
<path d="M1730 1305 c0 -59 15 -65 173 -65 146 0 167 9 167 71 l0 39 -170 0
-170 0 0 -45z"/>
<path d="M1830 1080 c0 -117 2 -132 20 -150 11 -11 33 -20 50 -20 17 0 39 9
50 20 18 18 20 33 20 150 l0 130 -70 0 -70 0 0 -130z"/>
<path d="M383 385 c-53 -23 -73 -67 -73 -162 l0 -83 1105 0 1105 0 0 78 c0 93
-19 139 -70 164 -33 17 -103 18 -1035 18 -836 -1 -1005 -3 -1032 -15z"/>
<path d="M264 96 c-3 -8 -4 -29 -2 -48 l3 -33 1150 0 1150 0 0 45 0 45 -1148
3 c-980 2 -1148 0 -1153 -12z"/>
</g>
</svg>
