<?xml version="1.0" standalone="no"?>
<!DOCTYPE svg PUBLIC "-//W3C//DTD SVG 20010904//EN"
 "http://www.w3.org/TR/2001/REC-SVG-20010904/DTD/svg10.dtd">
<svg version="1.0" xmlns="http://www.w3.org/2000/svg"
 width="7000.000000pt" height="6010.000000pt" viewBox="0 0 7000.000000 6010.000000"
 preserveAspectRatio="xMidYMid meet">

<g transform="translate(0.000000,6010.000000) scale(0.100000,-0.100000)"
fill="#000000" stroke="none">
<path d="M34878 52028 c-210 -6 -543 -25 -793 -46 l-80 -7 -6 -130 c-4 -71
-12 -377 -19 -680 -7 -302 -15 -597 -19 -654 l-6 -103 -125 -38 c-336 -102
-652 -244 -925 -416 -59 -36 -111 -64 -118 -61 -7 3 -259 228 -561 500 l-549
496 -46 -38 c-142 -119 -811 -745 -811 -759 0 -2 211 -268 468 -590 257 -323
471 -593 475 -599 5 -8 -16 -48 -51 -100 -210 -315 -358 -635 -498 -1082 -3
-10 -20 -12 -72 -7 -165 14 -1392 50 -1401 41 -21 -22 -162 -1155 -143 -1155
7 0 1448 -291 1464 -296 12 -3 19 -20 23 -52 52 -410 147 -777 285 -1098 48
-113 50 -119 33 -135 -10 -9 -268 -211 -573 -449 -305 -238 -558 -435 -562
-439 -20 -18 597 -972 633 -978 7 -2 313 161 679 360 l665 364 90 -82 c255
-233 581 -458 883 -609 50 -25 92 -47 92 -49 0 -1 -70 -330 -155 -731 -85
-401 -155 -730 -155 -732 0 -2 118 -42 263 -89 320 -106 848 -258 857 -248 4
5 128 316 275 693 147 377 274 702 283 724 l15 38 156 -6 c280 -13 620 20 926
88 83 19 156 35 163 37 9 3 140 -235 372 -671 198 -371 363 -676 368 -678 26
-8 1023 411 1065 448 5 5 -107 351 -248 771 l-257 762 28 21 c245 177 566 496
764 760 l72 95 51 -20 c29 -11 358 -144 731 -295 373 -151 682 -271 686 -267
37 41 500 953 515 1014 6 24 -27 45 -677 442 -376 229 -688 420 -695 425 -9 6
-7 29 8 97 65 290 90 537 90 866 l1 256 751 245 752 244 -3 30 c-8 70 -99 485
-174 787 l-81 328 -26 -5 c-14 -3 -370 -57 -791 -121 -421 -63 -773 -117 -782
-119 -13 -3 -33 25 -83 121 -155 292 -334 552 -540 785 -72 82 -84 101 -76
117 6 10 193 310 416 666 326 522 403 651 393 662 -34 41 -553 438 -786 602
l-134 94 -23 -24 c-12 -13 -242 -274 -510 -579 -268 -305 -498 -566 -510 -578
l-22 -24 -114 50 c-292 127 -617 219 -958 272 -68 11 -125 20 -126 22 -1 2
-48 332 -104 733 -56 402 -105 745 -108 762 -4 27 -9 32 -30 30 -14 -1 -133
-5 -265 -9z m482 -2518 c931 -138 1736 -722 2158 -1567 114 -227 194 -461 246
-717 37 -183 39 -173 -41 -180 -81 -8 -1484 -106 -1511 -106 -14 0 -21 12 -31
52 -6 29 -28 92 -47 141 -169 422 -542 722 -989 795 l-104 17 -6 60 c-8 84
-105 1478 -105 1511 l0 27 148 -6 c81 -4 208 -16 282 -27z m-810 -27 c0 -16
25 -372 55 -793 29 -421 51 -768 47 -771 -4 -3 -47 -18 -97 -34 -447 -136
-784 -511 -879 -977 -9 -42 -16 -93 -16 -112 l0 -34 -62 -6 c-81 -8 -1485
-106 -1517 -106 l-24 0 6 163 c34 892 529 1752 1302 2259 224 148 513 280 767
353 138 40 336 83 386 84 28 1 32 -2 32 -26z m531 -2499 c95 -30 178 -108 227
-211 23 -50 27 -71 27 -153 0 -86 -3 -101 -32 -162 -140 -297 -556 -296 -697
2 -28 59 -31 74 -31 160 0 82 4 103 27 152 31 67 105 149 164 184 87 51 209
62 315 28z m2736 -461 c-30 -689 -319 -1358 -804 -1863 -364 -380 -842 -661
-1344 -791 -89 -22 -332 -70 -336 -65 -5 4 -114 1569 -111 1585 2 7 40 24 88
38 301 86 578 306 743 587 78 135 146 336 163 485 6 60 7 61 38 62 17 0 360
24 761 53 402 30 748 54 769 55 l39 1 -6 -147z m-4110 -233 c95 -332 343 -625
661 -784 107 -54 264 -103 371 -118 51 -7 95 -17 97 -23 2 -5 26 -334 54 -730
27 -396 52 -750 56 -787 l6 -68 -109 0 c-59 0 -167 7 -238 15 -511 60 -986
252 -1410 569 -143 107 -419 379 -525 516 -227 294 -394 619 -495 958 -36 121
-81 325 -87 392 -3 34 -2 35 37 38 263 22 1507 110 1529 109 27 -2 30 -7 53
-87z"/>
<path d="M49060 47907 c0 -7 -441 -1651 -443 -1653 -1 -1 -92 -9 -202 -18
-253 -21 -647 -61 -790 -80 -84 -11 -111 -12 -117 -3 -4 7 -168 368 -364 803
l-356 790 -411 -83 c-226 -46 -413 -86 -416 -88 -4 -5 -70 -1568 -71 -1696 l0
-67 -37 -7 c-190 -34 -895 -245 -1004 -301 l-27 -13 -522 710 c-288 390 -526
711 -529 713 -5 3 -646 -250 -767 -303 -20 -9 -19 -19 121 -875 l141 -865
-260 -130 c-144 -71 -333 -172 -421 -225 -88 -53 -192 -113 -232 -132 l-71
-36 -637 563 c-350 310 -641 565 -646 567 -7 3 -663 -431 -693 -459 -5 -4 124
-350 298 -796 168 -434 306 -794 306 -799 0 -19 -202 -203 -336 -305 -154
-118 -223 -176 -324 -274 -58 -55 -124 -116 -147 -134 -37 -28 -45 -31 -65
-20 -13 7 -344 198 -736 426 -393 227 -718 413 -722 413 -5 0 -142 -138 -304
-307 -276 -287 -295 -309 -282 -328 7 -11 223 -338 480 -727 l467 -707 -74
-89 c-113 -135 -189 -239 -316 -426 -213 -315 -256 -375 -269 -376 -8 0 -386
122 -840 271 -455 149 -831 272 -836 273 -7 1 -446 -716 -446 -729 0 -2 286
-281 635 -621 350 -340 634 -620 633 -624 -2 -3 -73 -145 -159 -315 -85 -171
-190 -391 -233 -490 -43 -99 -81 -183 -84 -187 -4 -4 -400 36 -880 88 -481 53
-876 94 -878 91 -7 -7 -274 -778 -274 -792 0 -8 1134 -748 1457 -949 1 -1 -16
-60 -39 -131 -51 -165 -167 -627 -203 -810 -16 -77 -29 -141 -30 -142 -1 -2
-383 -46 -850 -98 -467 -52 -850 -97 -853 -100 -5 -5 -114 -827 -110 -831 2
-1 361 -140 797 -308 437 -168 798 -309 802 -313 3 -5 3 -96 -2 -203 -4 -107
-11 -360 -15 -561 l-7 -365 -813 -264 c-448 -145 -819 -267 -826 -271 -10 -6
-4 -98 25 -431 21 -232 40 -424 42 -426 2 -3 392 -62 865 -132 474 -70 865
-132 869 -136 5 -5 27 -117 50 -249 52 -299 91 -486 142 -684 21 -85 38 -155
36 -156 -1 -1 -345 -199 -764 -440 -420 -240 -763 -442 -763 -448 0 -7 53
-189 117 -404 l118 -393 39 0 c21 0 397 22 835 50 438 27 819 51 846 52 l50 3
32 -95 c64 -186 128 -349 255 -650 80 -188 127 -309 121 -316 -4 -7 -291 -261
-638 -564 -346 -304 -638 -560 -648 -570 -18 -16 -11 -31 184 -393 112 -208
208 -377 214 -377 6 0 384 103 840 230 771 213 831 228 843 212 7 -9 68 -100
136 -202 67 -102 206 -303 309 -447 l187 -262 -496 -682 c-273 -376 -498 -688
-501 -695 -4 -10 441 -569 511 -642 l22 -23 769 401 768 400 226 -223 c216
-213 387 -369 534 -487 37 -29 67 -58 67 -64 0 -6 -155 -362 -345 -792 -190
-430 -345 -786 -345 -792 0 -11 655 -517 670 -517 5 0 303 241 661 535 359
294 662 541 674 549 20 13 55 -6 494 -264 366 -215 471 -281 467 -294 -24 -81
-357 -1716 -350 -1718 5 -2 178 -84 384 -182 206 -99 378 -177 382 -175 4 2
248 313 543 689 295 377 539 685 543 685 4 0 59 -20 122 -45 186 -72 520 -193
733 -264 l198 -66 -7 -875 -6 -875 416 -93 c230 -52 419 -92 421 -90 2 1 177
345 390 763 212 417 387 761 390 763 2 2 57 -5 122 -17 196 -33 537 -78 728
-96 266 -23 274 -25 279 -43 2 -10 80 -387 172 -840 l168 -822 135 -1 c75 0
143 -2 151 -3 8 -2 143 -5 299 -7 l284 -4 198 755 c109 415 208 791 219 836
l22 81 166 12 c214 15 606 55 792 80 80 11 147 18 148 16 2 -2 162 -356 356
-787 194 -431 356 -790 362 -799 8 -14 54 -8 424 60 l415 76 3 55 c2 30 18
425 36 877 18 453 35 826 39 829 7 7 1059 326 1062 322 1 -2 228 -318 505
-703 277 -385 509 -706 516 -714 10 -11 77 14 408 155 272 115 396 173 396
183 0 8 -65 392 -145 852 -80 460 -145 844 -145 853 0 11 72 52 233 132 203
102 459 237 694 365 l72 40 635 -581 635 -580 348 241 c191 133 352 245 356
249 5 4 -134 361 -307 794 -174 432 -316 790 -316 795 0 5 37 38 83 74 174
137 567 473 730 625 l57 54 33 -19 c1147 -677 1449 -854 1456 -851 5 2 139
144 298 317 l290 315 -132 200 c-72 111 -284 433 -471 716 -187 283 -343 520
-347 527 -5 7 18 44 55 91 35 44 119 155 187 248 297 402 405 544 416 544 7 0
379 -119 827 -265 449 -146 820 -265 824 -265 5 1 107 164 226 364 l218 364
-627 624 -626 625 37 61 c21 34 74 137 118 229 45 93 117 242 161 332 43 91
97 206 119 255 22 50 43 95 47 99 4 4 400 -31 880 -79 480 -47 874 -84 876
-82 6 6 285 781 282 784 -1 1 -328 212 -727 469 -399 256 -726 470 -728 474
-2 5 46 204 107 442 60 239 119 484 131 544 13 61 24 111 24 112 1 1 384 41
851 88 468 48 853 90 856 93 4 4 28 183 53 397 26 215 49 404 52 420 l5 30
-802 300 -801 300 7 570 c4 314 10 573 13 576 4 3 372 124 817 269 446 144
812 264 814 267 5 3 -49 855 -54 861 -1 1 -391 56 -865 122 -475 66 -864 121
-866 123 -2 1 -30 149 -63 327 -64 344 -96 496 -136 648 -14 52 -25 100 -25
107 0 7 343 210 763 450 419 241 763 439 764 440 5 3 -239 810 -247 819 -7 7
-1549 -82 -1715 -99 l-50 -6 -44 128 c-57 167 -147 394 -270 678 -54 127 -97
233 -95 237 4 6 1187 1070 1281 1153 l24 20 -207 360 c-114 198 -209 363 -213
367 -5 5 -1505 -401 -1651 -447 -11 -3 -29 18 -60 68 -118 192 -388 586 -579
844 l-23 31 501 689 c275 378 501 690 501 694 0 10 -551 654 -558 652 -4 -1
-346 -179 -761 -397 l-754 -395 -196 188 c-202 194 -348 328 -532 489 l-107
92 354 787 c195 433 351 790 346 794 -18 17 -665 509 -668 509 -4 0 -1304
-1052 -1354 -1095 -13 -11 -44 5 -205 107 -219 138 -502 308 -657 393 -90 50
-106 63 -102 80 50 207 371 1712 366 1717 -4 4 -175 84 -381 178 -358 164
-375 170 -391 153 -10 -10 -253 -310 -540 -668 -288 -357 -531 -658 -540 -668
-17 -18 -28 -14 -306 96 -159 63 -391 150 -516 192 l-228 79 1 395 c0 482 -9
1342 -15 1348 -5 5 -793 193 -807 193 -4 0 -181 -349 -393 -775 -211 -426
-389 -775 -394 -775 -5 0 -31 4 -58 9 -131 25 -399 62 -574 81 -239 25 -479
63 -489 78 -3 6 -87 381 -185 834 -98 453 -179 824 -180 825 -5 6 -846 16
-846 10z m455 -4467 c436 -21 615 -34 615 -44 1 -6 -335 -1434 -746 -3172
l-748 -3162 -100 -10 c-140 -13 -712 -160 -771 -197 -11 -8 -58 -27 -105 -43
-47 -17 -140 -55 -207 -85 l-123 -55 -2375 2240 -2375 2240 128 97 c420 320
905 632 1362 877 291 156 821 404 1130 529 404 165 1029 368 1316 429 66 14
193 43 284 65 908 220 1925 329 2715 291z m3695 -830 c905 -380 1900 -989
2700 -1650 332 -275 734 -657 1010 -960 503 -552 971 -1206 1335 -1865 99
-178 371 -726 380 -765 l6 -25 -3093 -929 c-1701 -511 -3097 -930 -3103 -932
-5 -2 -57 54 -115 123 -156 187 -294 328 -466 475 -182 155 -372 298 -397 298
-10 0 -20 6 -23 13 -2 7 12 80 31 162 20 83 353 1498 741 3145 387 1647 707
3001 709 3007 5 14 91 -15 285 -97z m-10640 -1458 c0 -4 -37 -43 -82 -87 -88
-87 -87 -79 5 28 54 62 77 79 77 59z m410 -4337 c1273 -1199 2322 -2186 2333
-2194 17 -12 23 -9 58 25 47 46 49 37 8 -36 -71 -126 -180 -435 -243 -686 -43
-173 -71 -331 -91 -521 -9 -81 -16 -148 -18 -149 -1 -1 -5990 -1801 -6188
-1860 -14 -4 -20 17 -38 130 -11 73 -32 228 -46 342 -220 1857 58 3613 850
5359 267 589 740 1430 969 1723 51 64 59 71 75 60 9 -7 1059 -994 2331 -2193z
m6340 -1835 c221 -20 434 -78 628 -170 58 -28 108 -48 112 -45 5 3 16 -2 25
-12 10 -9 56 -39 104 -66 144 -82 239 -156 372 -287 126 -124 243 -271 318
-398 53 -89 108 -231 170 -437 63 -212 81 -297 86 -405 3 -47 7 -136 11 -198
10 -160 -25 -387 -92 -590 -38 -118 -141 -339 -167 -361 -9 -7 -17 -17 -17
-21 0 -19 -119 -203 -175 -270 -141 -168 -285 -292 -495 -427 -164 -105 -274
-152 -555 -237 -168 -51 -272 -65 -495 -65 -344 -1 -576 52 -885 203 -381 187
-719 515 -900 876 -95 189 -168 421 -201 635 -22 149 -23 425 0 565 35 223
122 489 198 603 21 32 38 66 38 75 0 10 28 60 61 112 110 171 229 313 354 422
109 96 356 258 452 297 43 18 98 43 123 56 50 26 268 92 334 101 22 3 70 12
106 20 54 12 197 26 345 32 17 1 82 -3 145 -8z m10160 -400 c0 -5 16 -119 35
-252 109 -769 132 -1509 69 -2248 -97 -1147 -408 -2306 -894 -3330 -43 -91
-104 -223 -135 -295 -31 -71 -82 -177 -114 -235 -63 -114 -154 -280 -237 -431
-92 -166 -525 -850 -536 -846 -3 1 -1042 979 -2309 2172 -1266 1194 -2327
2193 -2357 2220 l-55 50 51 140 c132 363 214 710 255 1085 l12 114 525 158
c289 87 1684 506 3100 932 1416 426 2578 775 2583 775 4 1 7 -3 7 -9z m-13467
-4263 c224 -267 470 -492 747 -683 54 -38 99 -75 100 -83 0 -8 -333 -1429
-740 -3157 -407 -1729 -740 -3146 -740 -3148 0 -13 -413 168 -685 299 -88 42
-203 96 -256 120 -53 23 -132 65 -175 92 -44 28 -151 89 -239 138 -1129 620
-2120 1427 -2911 2370 -542 646 -1016 1399 -1390 2208 -49 105 -69 159 -61
162 7 3 1328 400 2937 884 1609 483 2999 901 3090 929 91 27 168 48 172 46 3
-2 71 -82 151 -177z m7336 -3260 l2371 -2229 -87 -68 c-817 -631 -1774 -1161
-2793 -1544 -209 -79 -743 -244 -1085 -335 -1185 -315 -2374 -432 -3433 -337
-78 7 -144 15 -147 18 -3 2 326 1413 730 3134 405 1721 741 3150 746 3177 10
44 13 47 43 47 36 0 178 25 361 64 124 26 391 106 512 152 37 14 106 39 152
55 46 16 89 33 97 40 15 12 146 60 156 56 3 -1 1073 -1005 2377 -2230z"/>
<path d="M20380 38079 c-305 -24 -843 -80 -907 -94 l-23 -5 0 -673 0 -672
-236 -38 c-339 -56 -858 -162 -1082 -221 l-52 -14 -14 31 c-7 18 -122 298
-256 622 -134 325 -244 592 -246 594 -8 10 -962 -279 -1005 -305 -3 -2 53
-300 126 -663 l132 -660 -26 -10 c-14 -6 -98 -37 -186 -70 -308 -114 -695
-275 -952 -396 -64 -30 -120 -55 -124 -55 -5 0 -175 250 -379 555 -204 305
-375 555 -380 555 -39 0 -906 -468 -916 -494 -2 -6 110 -288 251 -626 140
-338 251 -618 247 -621 -4 -4 -74 -49 -157 -99 -270 -165 -703 -458 -964 -651
l-32 -23 -477 477 -478 478 -235 -188 c-129 -104 -312 -255 -407 -336 l-173
-149 17 -26 c10 -15 179 -268 376 -562 l359 -535 -23 -18 c-13 -11 -121 -112
-242 -226 -190 -179 -421 -414 -659 -669 l-67 -72 -555 370 c-305 203 -559
370 -564 370 -18 0 -487 -562 -646 -773 l-28 -38 479 -473 479 -473 -25 -34
c-209 -285 -458 -653 -635 -939 -60 -96 -112 -179 -116 -184 -4 -5 -285 106
-629 249 -341 142 -622 256 -624 254 -31 -38 -496 -904 -496 -923 0 -3 251
-173 558 -377 306 -205 558 -373 560 -374 2 -2 -24 -63 -58 -137 -134 -288
-285 -652 -405 -973 -37 -99 -68 -181 -69 -182 -1 -2 -295 56 -652 127 -356
72 -654 130 -661 130 -23 0 -323 -965 -311 -1001 2 -6 279 -124 616 -263 337
-140 615 -256 618 -259 3 -3 -15 -92 -40 -199 -64 -271 -138 -643 -181 -908
-20 -124 -38 -234 -40 -245 -4 -20 -11 -20 -677 -20 l-673 0 -12 -85 c-29
-201 -100 -957 -91 -965 2 -2 291 -60 643 -129 352 -70 647 -129 655 -131 13
-4 15 -91 15 -704 l0 -700 -648 -128 c-357 -70 -653 -131 -658 -134 -15 -9 21
-437 72 -866 l22 -183 673 0 674 0 5 -22 c2 -13 18 -108 35 -213 51 -321 126
-694 204 -1015 15 -58 26 -109 26 -115 0 -5 -279 -125 -620 -265 l-621 -255 6
-32 c12 -70 119 -432 207 -701 73 -223 95 -282 108 -279 98 24 1300 260 1304
256 4 -3 45 -108 91 -233 103 -273 232 -584 350 -841 47 -104 89 -195 92 -202
3 -7 -217 -159 -554 -384 -307 -204 -559 -373 -561 -374 -7 -6 267 -533 379
-727 22 -38 57 -99 79 -137 l40 -69 622 259 c342 142 623 257 623 256 1 -1 55
-87 120 -192 155 -248 359 -555 524 -784 l133 -184 -477 -477 -476 -477 92
-119 c220 -285 564 -690 584 -688 7 1 258 166 558 368 301 201 550 366 555
366 5 0 49 -44 98 -97 144 -159 556 -573 731 -735 l163 -150 -376 -560 c-207
-308 -372 -563 -367 -567 4 -4 44 -39 88 -77 127 -112 376 -318 554 -458 l163
-129 478 478 477 477 94 -69 c244 -181 657 -458 944 -632 66 -41 121 -75 123
-76 2 -2 -112 -280 -253 -620 -141 -339 -255 -621 -253 -627 10 -29 913 -507
928 -491 4 4 171 253 370 553 199 300 365 548 369 552 3 4 65 -20 136 -53 257
-121 679 -296 965 -401 74 -27 149 -56 166 -63 l32 -13 -129 -639 c-71 -351
-131 -648 -134 -660 -5 -20 7 -26 177 -82 317 -103 783 -241 818 -241 12 0 84
165 269 613 139 336 256 615 260 619 4 4 54 -4 111 -18 303 -73 727 -158 1045
-209 88 -14 172 -28 188 -31 l27 -6 0 -673 0 -673 43 -6 c263 -38 994 -104
1006 -90 5 5 66 303 137 662 l128 652 191 -7 c231 -8 646 -10 970 -3 l240 5
129 -655 c71 -360 131 -657 133 -659 8 -10 650 50 961 90 l92 12 0 673 0 672
28 6 c15 3 110 19 212 35 305 50 690 127 978 196 80 19 147 33 150 30 3 -2
119 -280 258 -616 139 -336 256 -614 259 -617 17 -18 992 279 1002 305 3 7
-54 306 -126 664 -72 359 -130 653 -128 654 1 1 79 30 172 65 330 121 736 290
1002 415 64 30 117 54 118 53 1 -2 169 -254 374 -560 204 -307 373 -558 376
-558 19 0 435 219 728 383 144 81 197 115 194 127 -2 8 -118 289 -257 623
-139 335 -251 609 -249 611 2 2 90 56 194 121 243 151 618 403 810 543 l150
110 477 -475 476 -476 27 17 c75 49 604 483 751 617 l42 38 -373 558 -374 558
127 119 c220 207 487 474 674 673 100 106 185 193 189 193 4 0 256 -166 559
-370 304 -204 555 -370 559 -369 12 1 389 452 555 663 l117 150 -477 477 -476
476 142 199 c165 231 383 558 530 796 93 151 104 166 124 158 43 -16 1211
-502 1218 -506 7 -5 131 210 260 451 128 238 250 476 247 479 -2 2 -255 170
-561 375 -307 204 -558 374 -558 377 0 3 28 65 61 137 130 281 293 673 412
997 31 83 60 146 68 148 8 1 306 -56 663 -128 357 -71 650 -129 651 -127 4 4
103 310 149 457 82 263 158 542 149 551 -4 4 -282 121 -618 260 -335 138 -612
253 -614 255 -3 3 19 107 48 232 71 311 125 580 175 882 l42 255 675 5 674 5
12 95 c22 179 63 575 77 760 11 141 12 186 3 190 -7 2 -304 63 -662 135 -530
106 -649 133 -647 145 9 37 12 1024 5 1190 -5 102 -8 187 -7 188 2 2 299 63
661 134 362 72 659 131 660 132 7 6 -50 622 -85 911 l-17 140 -674 0 -674 0
-48 285 c-54 321 -108 594 -175 878 -25 106 -44 197 -42 203 2 6 280 125 617
264 337 140 616 256 618 259 16 16 -291 1006 -312 1006 -6 0 -303 -58 -660
-130 -357 -71 -652 -127 -655 -122 -4 4 -17 36 -30 72 -103 296 -379 963 -479
1158 -12 23 -21 45 -21 50 0 5 252 177 560 382 l560 373 -119 231 c-125 244
-355 662 -375 684 -10 10 -135 -38 -630 -244 -510 -211 -620 -254 -630 -242
-7 7 -52 78 -101 158 -126 207 -349 542 -514 773 -78 109 -144 204 -147 210
-2 7 209 225 470 486 l474 474 -75 99 c-105 135 -300 373 -459 560 l-135 156
-560 -375 -561 -375 -81 88 c-213 231 -592 610 -820 820 l-87 80 375 561 374
561 -162 139 c-170 147 -423 354 -568 466 l-85 66 -475 -475 c-260 -261 -477
-474 -481 -474 -4 0 -58 37 -120 83 -258 190 -585 409 -868 582 -80 49 -151
94 -158 100 -10 9 38 134 244 629 142 342 252 622 248 626 -27 26 -557 316
-800 438 l-122 61 -372 -560 c-205 -307 -376 -559 -380 -559 -4 0 -74 31 -156
69 -298 137 -677 294 -984 407 -134 49 -145 55 -142 77 1 13 58 304 127 648
69 343 125 631 125 639 0 12 -66 38 -267 103 -227 74 -711 217 -733 217 -3 0
-122 -280 -264 -623 l-257 -623 -182 43 c-260 62 -675 145 -950 189 l-237 39
0 672 0 673 -22 5 c-38 8 -440 53 -628 70 -292 26 -402 32 -406 20 -2 -5 -61
-302 -132 -660 l-129 -650 -29 2 c-126 9 -1000 13 -1159 5 -110 -5 -203 -6
-207 -3 -3 3 -64 300 -135 660 -71 360 -133 655 -139 656 -5 1 -56 -2 -114 -6z
m708 -6501 c1 -2062 -1 -3748 -5 -3748 -13 0 -184 -19 -230 -25 l-43 -6 0
-218 0 -218 -100 -16 c-56 -9 -153 -28 -217 -43 -63 -14 -119 -22 -123 -17 -5
4 -43 91 -85 193 -41 102 -79 188 -83 192 -4 4 -66 -10 -137 -31 -168 -51
-185 -58 -185 -74 0 -7 18 -103 40 -212 22 -109 39 -199 37 -201 -1 -1 -72
-30 -157 -64 -85 -35 -176 -73 -202 -86 -26 -13 -49 -24 -51 -24 -2 0 -58 81
-123 180 -65 99 -122 180 -125 180 -9 0 -273 -141 -286 -154 -9 -8 6 -55 67
-201 44 -104 80 -195 80 -201 0 -6 -38 -34 -84 -63 -45 -28 -123 -79 -172
-114 -49 -35 -95 -67 -103 -71 -9 -6 -58 36 -166 144 -115 115 -157 151 -167
144 -48 -37 -225 -184 -235 -196 -10 -11 10 -47 106 -192 l119 -178 -160 -160
-160 -160 -179 120 -179 121 -63 -73 c-34 -40 -83 -100 -109 -133 l-47 -60
154 -153 c167 -166 161 -156 108 -219 l-29 -34 -225 130 c-123 72 -1664 962
-3424 1978 -1760 1016 -3204 1851 -3209 1856 -22 20 419 665 727 1063 534 688
1193 1370 1868 1933 1306 1089 2851 1910 4474 2378 709 205 1453 349 2185 424
263 27 738 59 850 57 l45 -1 3 -3747z m1227 3726 c2130 -137 4213 -844 6010
-2039 1238 -823 2291 -1834 3188 -3060 105 -144 467 -682 467 -694 -1 -5
-6842 -3957 -6869 -3969 -4 -1 -17 12 -30 29 l-23 31 151 152 c83 83 151 155
151 160 0 9 -80 111 -163 208 l-48 57 -181 -120 -181 -121 -159 160 -160 159
121 181 120 180 -82 69 c-127 107 -173 143 -183 143 -5 0 -76 -67 -159 -149
l-150 -150 -186 125 -187 125 83 197 c80 192 82 197 63 213 -20 15 -271 149
-280 149 -3 0 -59 -81 -123 -180 -64 -99 -118 -180 -119 -180 -1 0 -51 22
-111 48 -61 27 -154 66 -207 86 -54 21 -98 41 -98 45 0 3 18 98 41 210 22 112
37 207 32 211 -7 8 -232 79 -293 93 -25 6 -28 1 -104 -186 -43 -106 -82 -196
-86 -200 -4 -5 -59 3 -121 17 -63 14 -160 33 -216 42 l-103 17 0 218 0 218
-42 6 c-47 6 -218 25 -230 25 -5 0 -8 1688 -8 3751 l0 3750 123 -6 c67 -3 226
-13 352 -21z m10091 -6521 c77 -137 305 -604 399 -816 636 -1439 984 -2930
1055 -4522 10 -237 5 -995 -9 -1215 -102 -1593 -453 -3018 -1085 -4412 -84
-185 -323 -668 -331 -668 -4 0 -6857 3954 -6872 3964 -2 2 117 308 122 313 1
2 91 -15 200 -37 109 -22 206 -40 214 -40 12 0 27 36 58 138 24 75 44 148 45
161 3 22 -10 30 -187 103 -104 43 -193 82 -197 86 -5 5 3 57 17 117 13 60 32
158 42 217 l17 108 217 0 c217 0 217 0 222 23 10 42 30 294 25 309 -4 10 -68
26 -212 53 l-206 39 0 227 0 227 48 10 c26 6 120 25 210 43 l162 32 0 37 c0
45 -18 233 -26 272 l-6 28 -216 2 -216 3 -22 125 c-12 69 -32 167 -43 219 -12
51 -20 95 -18 97 2 2 91 40 198 85 107 45 196 83 197 84 7 6 -92 325 -101 325
-2 0 -93 -18 -202 -40 -109 -22 -204 -40 -210 -40 -6 0 -33 55 -60 123 -26 67
-66 160 -87 206 -21 46 -37 85 -36 86 2 1 80 53 173 115 94 62 175 118 181
126 11 13 6483 3754 6496 3754 3 0 23 -30 44 -67z m-18397 -1962 c1870 -1081
3401 -1970 3401 -1976 0 -7 -17 -50 -39 -96 -21 -46 -58 -135 -82 -196 -23
-62 -48 -113 -53 -113 -6 0 -103 18 -214 41 -112 22 -205 39 -207 37 -4 -4
-95 -307 -95 -318 0 -4 90 -45 201 -90 182 -76 200 -85 195 -104 -4 -12 -22
-102 -42 -201 -19 -99 -37 -190 -40 -202 -4 -22 -6 -23 -222 -25 l-217 -3 -11
-105 c-6 -58 -14 -133 -17 -167 l-5 -61 167 -32 c91 -17 187 -36 214 -42 l47
-10 -2 -226 -3 -226 -210 -43 c-115 -23 -211 -42 -212 -43 0 0 1 -17 3 -37 2
-21 8 -90 14 -153 6 -63 14 -123 16 -132 5 -16 26 -18 222 -20 l216 -3 22
-130 c13 -71 32 -168 43 -215 11 -47 17 -88 13 -92 -4 -3 -90 -41 -192 -83
-102 -42 -189 -80 -193 -85 -5 -4 10 -70 33 -146 23 -77 45 -147 47 -156 3
-10 13 -18 22 -18 10 0 107 18 216 40 109 22 199 39 200 37 1 -1 23 -58 50
-127 27 -69 65 -162 86 -207 l38 -83 -92 -54 c-51 -30 -1597 -924 -3436 -1985
l-3345 -1931 -24 43 c-60 104 -309 612 -397 812 -554 1248 -894 2558 -1015
3905 -34 388 -41 523 -47 965 -12 939 68 1790 253 2695 226 1100 641 2259
1159 3235 l66 125 33 -18 c18 -9 1564 -901 3435 -1981z m7081 -796 l0 -444
-37 -6 c-553 -95 -1004 -314 -1414 -687 -72 -65 -237 -244 -260 -281 -8 -11
-782 431 -777 444 2 4 41 57 88 116 109 139 394 424 535 537 489 389 1034 635
1642 741 76 13 157 24 181 24 l42 1 0 -445z m964 420 c766 -129 1478 -510
2002 -1070 104 -111 244 -279 244 -293 0 -5 -172 -108 -382 -229 l-383 -221
-49 57 c-382 440 -972 777 -1526 871 -36 6 -77 13 -92 16 l-28 6 0 444 0 444
34 0 c19 0 100 -11 180 -25z m2743 -2255 c252 -658 296 -1413 123 -2115 -53
-215 -151 -501 -168 -492 -133 77 -733 423 -749 433 l-22 14 25 72 c97 282
141 591 131 913 -10 316 -63 588 -170 864 -32 84 -37 105 -26 112 8 4 181 104
384 222 l370 215 29 -62 c16 -33 49 -113 73 -176z m-6205 -16 c205 -118 377
-219 381 -224 5 -4 -10 -61 -32 -125 -51 -144 -94 -313 -122 -476 -27 -158
-37 -503 -20 -675 22 -220 80 -469 158 -680 l30 -81 -379 -219 c-209 -120
-384 -220 -388 -222 -10 -4 -120 276 -158 403 -111 363 -156 674 -156 1065 0
419 57 766 189 1148 42 122 114 302 120 302 2 0 171 -97 377 -216z m3149 67
c254 -58 458 -166 640 -339 201 -191 335 -429 395 -703 22 -100 30 -335 15
-440 -83 -587 -522 -1043 -1101 -1145 -134 -23 -346 -22 -475 4 -552 110 -974
539 -1070 1089 -21 117 -20 328 1 451 91 538 508 970 1040 1081 138 29 150 30
319 25 100 -2 179 -10 236 -23z m2296 -3119 l363 -209 -73 -99 c-230 -312
-544 -612 -872 -833 -161 -109 -238 -153 -413 -240 -332 -166 -714 -285 -1074
-336 l-48 -6 0 448 0 448 88 18 c403 82 794 267 1132 536 119 94 334 312 420
423 63 83 66 85 90 73 14 -7 188 -108 387 -223z m-4604 70 c226 -272 589 -545
924 -696 210 -94 491 -179 683 -205 47 -7 95 -14 108 -17 l22 -4 0 -440 c0
-241 -3 -441 -7 -443 -5 -3 -72 3 -149 13 -645 83 -1245 334 -1754 735 -138
108 -311 269 -423 393 -112 124 -240 282 -234 288 7 7 762 443 767 444 4 0 32
-31 63 -68z m9185 -2713 c1879 -1085 3423 -1978 3431 -1985 12 -11 2 -33 -69
-146 -369 -589 -810 -1173 -1296 -1716 -198 -221 -675 -700 -894 -896 -854
-768 -1779 -1400 -2785 -1903 -1341 -672 -2802 -1093 -4305 -1242 -215 -22
-637 -51 -727 -51 l-53 0 0 3750 c0 2063 1 3750 3 3751 1 0 45 6 97 12 l95 12
3 217 c2 216 3 218 25 222 12 3 103 20 202 40 99 19 187 37 196 41 13 5 32
-31 100 -195 l83 -202 33 7 c33 6 285 84 291 90 2 2 -15 95 -37 207 -23 111
-41 208 -41 213 0 6 24 19 52 29 29 10 116 45 193 78 77 33 148 62 157 65 13
4 44 -36 134 -171 64 -97 122 -176 127 -176 10 0 206 102 264 137 l31 18 -75
180 c-41 99 -78 190 -83 201 -8 19 3 29 103 92 62 39 146 96 187 126 l75 55
155 -155 156 -154 94 76 c52 43 111 92 131 110 l37 32 -119 179 -120 179 160
161 160 160 178 -118 c98 -66 180 -119 183 -119 6 1 191 225 204 247 6 12 -27
51 -144 168 l-153 153 67 96 c37 53 70 96 73 96 2 0 1542 -887 3421 -1971z
m-10779 1824 l33 -46 -151 -151 c-83 -83 -151 -155 -151 -160 0 -10 201 -256
210 -256 3 0 85 53 183 119 l177 119 159 -161 159 -160 -120 -181 -121 -180
25 -20 c14 -12 74 -61 133 -109 l109 -88 157 157 c97 97 159 152 164 145 5 -9
109 -80 347 -236 13 -9 3 -39 -68 -209 -79 -185 -83 -199 -67 -212 27 -19 269
-144 280 -144 5 0 62 79 126 175 65 96 121 175 126 175 4 0 46 -17 92 -39 46
-21 136 -58 199 -81 63 -24 117 -45 119 -46 1 -2 -15 -92 -38 -201 -23 -109
-41 -205 -41 -214 0 -11 36 -27 133 -57 72 -23 146 -45 162 -48 l30 -5 81 198
c53 127 87 197 95 196 11 -1 278 -53 406 -79 22 -4 23 -6 25 -222 l3 -217 100
-12 c55 -6 131 -13 169 -15 67 -3 70 -2 77 22 4 14 6 -1674 6 -3750 l-2 -3775
-110 3 c-186 5 -459 21 -700 43 -3501 308 -6700 2093 -8824 4923 -243 325
-611 870 -596 884 12 13 6850 3960 6861 3961 5 1 25 -20 43 -46z"/>
</g>
</svg>
