<?xml version="1.0" standalone="no"?>
<!DOCTYPE svg PUBLIC "-//W3C//DTD SVG 20010904//EN"
 "http://www.w3.org/TR/2001/REC-SVG-20010904/DTD/svg10.dtd">
<svg version="1.0" xmlns="http://www.w3.org/2000/svg"
 width="966.000000pt" height="696.000000pt" viewBox="0 0 966.000000 696.000000"
 preserveAspectRatio="xMidYMid meet">

<g transform="translate(0.000000,696.000000) scale(0.100000,-0.100000)"
fill="#000000" stroke="none">
<path d="M2345 6889 c-312 -46 -577 -286 -655 -594 -20 -80 -20 -101 -18
-2085 l3 -2005 23 -70 c94 -279 292 -470 568 -547 l79 -22 1383 -4 1382 -3 0
-514 0 -514 -312 -3 c-294 -3 -315 -4 -348 -23 -66 -39 -70 -123 -10 -178 l30
-27 741 0 c826 0 781 -4 815 69 15 31 15 40 3 75 -8 21 -27 49 -42 60 -27 20
-42 21 -343 24 l-314 3 0 514 0 514 1353 3 1352 4 77 21 c279 79 483 277 570
553 l23 75 0 2010 0 2010 -23 78 c-79 275 -293 485 -572 564 -62 17 -187 18
-2885 19 -1579 1 -2846 -2 -2880 -7z m5688 -234 c205 -43 358 -181 428 -382
l18 -53 -3285 0 c-1806 0 -3284 2 -3284 5 0 28 51 143 87 197 55 83 117 138
208 184 135 67 -80 62 2980 63 2390 1 2790 -1 2848 -14z m452 -2425 l0 -1755
-3295 0 -3295 0 -3 1745 c-1 960 0 1751 3 1758 3 10 668 12 3297 10 l3293 -3
0 -1755z m-21 -2017 c-3 -16 -23 -65 -45 -109 -63 -133 -176 -231 -329 -286
l-65 -23 -2810 -3 c-2778 -2 -2811 -2 -2889 18 -167 42 -303 152 -374 302 -22
46 -42 93 -45 106 l-5 22 3284 0 3284 0 -6 -27z"/>
<path d="M4512 5331 c-359 -121 -661 -225 -673 -231 -11 -6 -24 -22 -29 -36
-6 -14 -10 -176 -10 -370 l0 -344 -359 0 -359 0 -17 49 c-46 139 -177 269
-315 312 -189 59 -375 13 -516 -126 -202 -199 -199 -514 5 -715 77 -76 152
-115 260 -137 236 -49 495 104 568 334 l17 53 355 -2 356 -3 5 -359 5 -359 35
-29 c28 -22 183 -77 690 -243 l653 -215 651 221 c556 189 656 225 684 252 l32
31 0 353 0 353 360 0 c300 0 360 -2 360 -14 0 -7 18 -50 40 -94 156 -311 555
-378 801 -133 101 101 151 215 151 350 1 180 -70 328 -203 421 -243 171 -583
80 -719 -192 -22 -44 -40 -87 -40 -94 0 -12 -60 -14 -360 -14 l-360 0 0 354 0
353 -23 25 c-18 19 -163 71 -679 241 -362 120 -670 220 -685 223 -20 3 -218
-59 -681 -215z m1137 -162 l454 -152 -454 -154 -454 -155 -457 154 c-251 84
-454 155 -452 157 7 8 877 300 894 300 8 1 219 -67 469 -150z m-1094 -488
l520 -178 3 -662 c2 -549 0 -662 -11 -659 -8 2 -244 82 -525 178 l-512 175 0
662 c0 365 1 663 3 663 1 -1 236 -81 522 -179z m1795 -483 l0 -663 -512 -175
c-281 -96 -518 -176 -525 -178 -11 -3 -13 114 -11 659 l3 662 515 177 c283 98
518 178 523 179 4 0 7 -297 7 -661z m-3633 286 c56 -27 91 -63 126 -128 17
-32 22 -58 22 -121 0 -70 -4 -87 -30 -134 -55 -99 -151 -148 -270 -139 -170
14 -290 185 -245 348 47 171 235 253 397 174z m5189 7 c22 -10 58 -35 79 -56
128 -129 100 -341 -58 -439 -38 -23 -62 -30 -121 -34 -63 -4 -81 -1 -127 20
-100 46 -158 127 -167 234 -17 213 196 362 394 275z"/>
</g>
</svg>
